<svg id="Livello_1" data-name="Livello 1" xmlns="http://www.w3.org/2000/svg" viewBox="0 0 18.48 18.48"><defs><style>.cls-1{fill:#003182;}</style></defs><path id="Icon_awesome-instagram" data-name="Icon awesome-instagram" class="cls-1" d="M9.24,4.5A4.74,4.74,0,1,0,14,9.24h0A4.74,4.74,0,0,0,9.26,4.5Zm0,7.82a3.08,3.08,0,1,1,3.08-3.08A3.08,3.08,0,0,1,9.24,12.32Zm6-8a1.1,1.1,0,1,1-1.1-1.1,1.1,1.1,0,0,1,1.1,1.1Zm3.13,1.12a5.44,5.44,0,0,0-1.49-3.87A5.44,5.44,0,0,0,13.05.07C11.53,0,7,0,5.43.07A5.44,5.44,0,0,0,1.56,1.56,5.44,5.44,0,0,0,.07,5.43C0,7,0,11.53.07,13.05a5.4,5.4,0,0,0,1.49,3.87,5.48,5.48,0,0,0,3.87,1.49c1.52.09,6.1.09,7.62,0a5.44,5.44,0,0,0,3.87-1.49,5.51,5.51,0,0,0,1.49-3.87c.09-1.53.09-6.09,0-7.62Zm-2,9.25a3.09,3.09,0,0,1-1.75,1.76c-1.22.48-4.1.37-5.45.37S5,16.92,3.8,16.44A3.12,3.12,0,0,1,2,14.69c-.48-1.22-.37-4.1-.37-5.45S1.56,5,2,3.79A3.09,3.09,0,0,1,3.8,2C5,1.56,7.9,1.67,9.24,1.67s4.24-.11,5.45.37a3.11,3.11,0,0,1,1.75,1.75c.49,1.22.37,4.1.37,5.45s.12,4.23-.37,5.45Z"/></svg>