<svg id="Livello_1" data-name="Livello 1" xmlns="http://www.w3.org/2000/svg" viewBox="0 0 308.78 57.64"><defs><style>.cls-1{fill:#003182;}.cls-2{fill:#fff;}.cls-3{fill:#6fc0c6;}</style></defs><g id="Group_5" data-name="Group 5"><g id="Group_3" data-name="Group 3"><circle id="Ellipse_1" data-name="Ellipse 1" class="cls-1" cx="28.82" cy="28.82" r="28.82"/><g id="Group_1" data-name="Group 1"><path id="Path_1" data-name="Path 1" class="cls-2" d="M22.5,7V22.49H7.73v4.22h19V7Z"/><path id="Path_2" data-name="Path 2" class="cls-2" d="M7.73,30.93v4.22H22.49V51h4.22v-20Z"/></g><g id="Group_2" data-name="Group 2"><path id="Path_3" data-name="Path 3" class="cls-3" d="M49.91,26.71V22.5H35.15V7H30.93V26.71Z"/><path id="Path_4" data-name="Path 4" class="cls-3" d="M49.91,35.15V30.93h-19V51h4.22V43.58H45.69V39.37H35.15V35.15Z"/></g></g><g id="Group_4" data-name="Group 4"><path id="Path_5" data-name="Path 5" class="cls-1" d="M90.77,31.28H82.08v9H77.55v-22H91.86V22H82.08v5.67h8.69Z"/><path id="Path_6" data-name="Path 6" class="cls-1" d="M103.14,40.26a4.48,4.48,0,0,1-.44-1.46,5.31,5.31,0,0,1-4.12,1.76,5.79,5.79,0,0,1-4-1.39A4.44,4.44,0,0,1,93,35.67a4.62,4.62,0,0,1,1.93-4,9.46,9.46,0,0,1,5.56-1.4h2v-.94a2.64,2.64,0,0,0-.58-1.81,2.28,2.28,0,0,0-1.83-.68,2.63,2.63,0,0,0-1.73.53,1.81,1.81,0,0,0-.63,1.45H93.39a4.37,4.37,0,0,1,.87-2.63,5.79,5.79,0,0,1,2.48-1.89,9,9,0,0,1,3.59-.69,7.16,7.16,0,0,1,4.79,1.52,5.29,5.29,0,0,1,1.77,4.26v7.08a7.7,7.7,0,0,0,.65,3.51v.26Zm-3.61-3a3.79,3.79,0,0,0,1.78-.42,2.8,2.8,0,0,0,1.2-1.16V32.83h-1.63c-2.18,0-3.34.76-3.48,2.27l0,.25A1.79,1.79,0,0,0,98,36.7a2.21,2.21,0,0,0,1.58.52Z"/><path id="Path_7" data-name="Path 7" class="cls-1" d="M119.42,28a13.65,13.65,0,0,0-1.57-.12q-2.47,0-3.24,1.68V40.26h-4.36V23.93h4.12l.12,1.95a4,4,0,0,1,3.63-2.25,4.44,4.44,0,0,1,1.36.2Z"/><path id="Path_8" data-name="Path 8" class="cls-1" d="M125.6,23.93l.14,1.83a5.7,5.7,0,0,1,4.7-2.13,4.34,4.34,0,0,1,4.32,2.49,5.63,5.63,0,0,1,4.91-2.49,4.82,4.82,0,0,1,4,1.55,7,7,0,0,1,1.3,4.65V40.26h-4.37V29.82a3.11,3.11,0,0,0-.54-2,2.39,2.39,0,0,0-1.92-.64A2.74,2.74,0,0,0,135.37,29l0,11.24H131V29.84a3.15,3.15,0,0,0-.56-2.06,2.45,2.45,0,0,0-1.9-.63,2.83,2.83,0,0,0-2.69,1.54V40.26h-4.35V23.93Z"/><path id="Path_9" data-name="Path 9" class="cls-1" d="M157.74,40.26a4.48,4.48,0,0,1-.44-1.46,5.31,5.31,0,0,1-4.12,1.76,5.79,5.79,0,0,1-4-1.39,4.44,4.44,0,0,1-1.58-3.5,4.62,4.62,0,0,1,1.93-4,9.46,9.46,0,0,1,5.56-1.4h2v-.94a2.64,2.64,0,0,0-.58-1.81,2.28,2.28,0,0,0-1.83-.68,2.63,2.63,0,0,0-1.73.53,1.81,1.81,0,0,0-.63,1.45H148a4.37,4.37,0,0,1,.87-2.63,5.79,5.79,0,0,1,2.48-1.89,9,9,0,0,1,3.59-.69,7.14,7.14,0,0,1,4.79,1.52,5.29,5.29,0,0,1,1.77,4.26v7.08a7.7,7.7,0,0,0,.65,3.51v.26Zm-3.61-3a3.79,3.79,0,0,0,1.78-.42,2.8,2.8,0,0,0,1.2-1.16V32.83h-1.63c-2.18,0-3.34.76-3.48,2.27l0,.25a1.79,1.79,0,0,0,.58,1.35,2.19,2.19,0,0,0,1.57.52Z"/><path id="Path_10" data-name="Path 10" class="cls-1" d="M171.63,37a2.86,2.86,0,0,0,2-.66,2.34,2.34,0,0,0,.79-1.77h4.09a5.64,5.64,0,0,1-.91,3,5.87,5.87,0,0,1-2.44,2.14,7.6,7.6,0,0,1-3.41.77,7.12,7.12,0,0,1-5.53-2.23,8.8,8.8,0,0,1-2-6.15V31.9a8.76,8.76,0,0,1,2-6,7,7,0,0,1,5.51-2.24,6.88,6.88,0,0,1,4.91,1.74A6.21,6.21,0,0,1,178.47,30h-4.09a3,3,0,0,0-.79-2.07,2.91,2.91,0,0,0-4.12.12l-.17.19a6.4,6.4,0,0,0-.78,3.61v.45a6.55,6.55,0,0,0,.77,3.63A2.66,2.66,0,0,0,171.63,37Z"/><path id="Path_11" data-name="Path 11" class="cls-1" d="M180.93,19.7a2.16,2.16,0,0,1,.65-1.61,2.84,2.84,0,0,1,3.57,0,2.3,2.3,0,0,1,0,3.24,2.79,2.79,0,0,1-3.55,0A2.12,2.12,0,0,1,180.93,19.7Zm4.63,20.56h-4.38V23.93h4.38Z"/><path id="Path_12" data-name="Path 12" class="cls-1" d="M198.61,40.26a5,5,0,0,1-.44-1.46,5.28,5.28,0,0,1-4.12,1.76,5.77,5.77,0,0,1-4-1.39,4.44,4.44,0,0,1-1.58-3.5,4.61,4.61,0,0,1,1.92-4,9.49,9.49,0,0,1,5.57-1.4h2v-.94a2.64,2.64,0,0,0-.58-1.81,2.28,2.28,0,0,0-1.83-.68,2.63,2.63,0,0,0-1.73.53,1.81,1.81,0,0,0-.63,1.45h-4.36a4.38,4.38,0,0,1,.88-2.63,5.76,5.76,0,0,1,2.47-1.89,9,9,0,0,1,3.59-.69,7.17,7.17,0,0,1,4.8,1.52,5.29,5.29,0,0,1,1.77,4.26v7.08A7.7,7.7,0,0,0,203,40v.26Zm-3.61-3a3.83,3.83,0,0,0,1.79-.42,2.8,2.8,0,0,0,1.2-1.16V32.83h-1.63c-2.18,0-3.34.76-3.48,2.27l0,.25a1.81,1.81,0,0,0,.57,1.35A2.2,2.2,0,0,0,195,37.22Z"/><path id="Path_13" data-name="Path 13" class="cls-1" d="M218.23,36.62h9.62v3.64H213.7v-22h4.53Z"/><path id="Path_14" data-name="Path 14" class="cls-1" d="M230.12,19.7a2.14,2.14,0,0,1,.66-1.61,2.84,2.84,0,0,1,3.57,0,2.3,2.3,0,0,1,0,3.24,2.79,2.79,0,0,1-3.55,0A2.12,2.12,0,0,1,230.12,19.7Zm4.63,20.56h-4.37V23.93h4.37Z"/><path id="Path_15" data-name="Path 15" class="cls-1" d="M253.06,32.24a9.85,9.85,0,0,1-1.68,6.12,5.52,5.52,0,0,1-4.68,2.2,5.08,5.08,0,0,1-4.24-2l-.19,1.73h-3.93V17.08h4.36v8.31a5,5,0,0,1,4-1.76,5.58,5.58,0,0,1,4.69,2.2,10,10,0,0,1,1.7,6.18Zm-4.36-.33a6.55,6.55,0,0,0-.79-3.62,2.64,2.64,0,0,0-2.34-1.15,2.89,2.89,0,0,0-2.87,1.72v6.46A2.92,2.92,0,0,0,245.6,37,2.7,2.7,0,0,0,248.38,35a10.81,10.81,0,0,0,.32-3.05Z"/><path id="Path_16" data-name="Path 16" class="cls-1" d="M263.26,40.56a8,8,0,0,1-5.85-2.2,7.82,7.82,0,0,1-2.26-5.87v-.42a10,10,0,0,1,1-4.4,7,7,0,0,1,2.7-3,7.59,7.59,0,0,1,4-1.05,6.8,6.8,0,0,1,5.28,2.11,8.65,8.65,0,0,1,1.92,6v1.78h-10.4a4,4,0,0,0,1.28,2.56,3.81,3.81,0,0,0,2.69,1,4.7,4.7,0,0,0,3.94-1.83l2.14,2.4A6.61,6.61,0,0,1,267,39.79,8.74,8.74,0,0,1,263.26,40.56Zm-.5-13.41a2.72,2.72,0,0,0-2.11.88,4.55,4.55,0,0,0-1,2.51h6.06v-.35a3.21,3.21,0,0,0-.78-2.25,2.8,2.8,0,0,0-2.14-.8Z"/><path id="Path_17" data-name="Path 17" class="cls-1" d="M281.63,28a14,14,0,0,0-1.58-.12q-2.48,0-3.24,1.68V40.26h-4.36V23.93h4.12l.12,1.95a4,4,0,0,1,3.63-2.25,4.48,4.48,0,0,1,1.36.2Z"/><path id="Path_18" data-name="Path 18" class="cls-1" d="M289.7,19.92v4h2.79v3.2H289.7v8.15a1.94,1.94,0,0,0,.34,1.3,1.73,1.73,0,0,0,1.33.39,7.8,7.8,0,0,0,1.28-.1v3.3a8.71,8.71,0,0,1-2.64.4q-4.58,0-4.68-4.64v-8.8H283v-3.2h2.39v-4Z"/><path id="Path_19" data-name="Path 19" class="cls-1" d="M304.38,40.26a4.71,4.71,0,0,1-.44-1.47,5.26,5.26,0,0,1-4.12,1.77,5.79,5.79,0,0,1-4-1.39,4.51,4.51,0,0,1-1.58-3.5,4.62,4.62,0,0,1,1.93-4,9.46,9.46,0,0,1,5.56-1.4h2v-.94a2.64,2.64,0,0,0-.58-1.81,2.28,2.28,0,0,0-1.83-.68,2.58,2.58,0,0,0-1.73.53,1.81,1.81,0,0,0-.63,1.45h-4.35a4.37,4.37,0,0,1,.87-2.63A5.79,5.79,0,0,1,298,24.32a9,9,0,0,1,3.59-.69,7.14,7.14,0,0,1,4.79,1.52,5.29,5.29,0,0,1,1.77,4.26v7.08a7.7,7.7,0,0,0,.65,3.51v.26Zm-.65-18.5h-3.58L296,17.08h4.75Zm-3,15.46a3.79,3.79,0,0,0,1.78-.42,2.88,2.88,0,0,0,1.21-1.16V32.83h-1.63c-2.18,0-3.35.76-3.49,2.27v.25a1.74,1.74,0,0,0,.57,1.35,2.2,2.2,0,0,0,1.57.52Z"/></g></g></svg>