<svg id="Livello_1" data-name="Livello 1" xmlns="http://www.w3.org/2000/svg" viewBox="0 0 40.29 36.96"><defs><style>.cls-1{fill:#003182;}</style></defs><g id="Icon_feather-phone" data-name="Icon feather-phone"><path class="cls-1" d="M35.06,37l-.49,0a41.44,41.44,0,0,1-16.81-5.43A37,37,0,0,1,6,20.86,33.37,33.37,0,0,1,0,5.4,4.73,4.73,0,0,1,1.43,1.54,5.41,5.41,0,0,1,5.22,0h5.65a5.13,5.13,0,0,1,5.22,4.14,19,19,0,0,0,1.22,4.51,4.67,4.67,0,0,1-1.24,5.29l-1.4,1.28a27.17,27.17,0,0,0,9.06,8.16l1.6-1.45a5.54,5.54,0,0,1,5.45-1.07,24.59,24.59,0,0,0,5,1.12,5,5,0,0,1,4.55,4.92V32a4.81,4.81,0,0,1-1.77,3.7A5.48,5.48,0,0,1,35.06,37ZM5.23,3a2.46,2.46,0,0,0-1.71.69A1.73,1.73,0,0,0,3,5.08a30.36,30.36,0,0,0,5.49,14,33.67,33.67,0,0,0,10.77,9.8,38.53,38.53,0,0,0,15.58,5,2.54,2.54,0,0,0,1.79-.55A1.82,1.82,0,0,0,37.29,32V26.94a2,2,0,0,0-1.85-2,27.07,27.07,0,0,1-5.63-1.27,2.55,2.55,0,0,0-2.49.48L25,26.31a1.49,1.49,0,0,1-1.68.23A30.28,30.28,0,0,1,11.44,15.79a1.49,1.49,0,0,1,.25-1.92l2.38-2.16a1.7,1.7,0,0,0,.47-1.92,21.76,21.76,0,0,1-1.41-5.14A2.14,2.14,0,0,0,10.93,3H5.23Z"/></g></svg>