<svg id="Livello_1" data-name="Livello 1" xmlns="http://www.w3.org/2000/svg" viewBox="0 0 21.26 19.54"><defs><style>.cls-1{fill:#6fc0c6;}</style></defs><g id="Icon_feather-phone" data-name="Icon feather-phone"><path class="cls-1" d="M18.33,19.54h-.27a21.58,21.58,0,0,1-8.77-2.84,19.2,19.2,0,0,1-6.13-5.56A17.49,17.49,0,0,1,0,3,2.71,2.71,0,0,1,.81.85,3.07,3.07,0,0,1,2.92,0H5.84A2.87,2.87,0,0,1,8.76,2.32a9.42,9.42,0,0,0,.62,2.29,2.66,2.66,0,0,1-.7,3l-.58.52A13.91,13.91,0,0,0,12.45,12l.71-.64a3.08,3.08,0,0,1,3-.61,12,12,0,0,0,2.51.57,2.8,2.8,0,0,1,2.55,2.77h0v2.64a2.69,2.69,0,0,1-1,2.08A3,3,0,0,1,18.33,19.54ZM2.92,2a1,1,0,0,0-.72.29.65.65,0,0,0-.2.54A15.38,15.38,0,0,0,4.79,10a17.2,17.2,0,0,0,5.5,5,19.38,19.38,0,0,0,8,2.57A1,1,0,0,0,19,17.3a.67.67,0,0,0,.26-.53V14.14a.81.81,0,0,0-.75-.8,14.47,14.47,0,0,1-3-.67,1.1,1.1,0,0,0-1.06.21L13.27,14a1,1,0,0,1-1.12.16A15.91,15.91,0,0,1,5.94,8.5a1,1,0,0,1,.18-1.28L7.35,6.11a.68.68,0,0,0,.18-.74,11.11,11.11,0,0,1-.74-2.71A.88.88,0,0,0,5.88,2h-3Z"/></g></svg>