<svg id="Livello_1" data-name="Livello 1" xmlns="http://www.w3.org/2000/svg" viewBox="0 0 19.77 23.72"><defs><style>.cls-1{fill:#6fc0c6;}</style></defs><g id="Icon_feather-map-pin" data-name="Icon feather-map-pin"><g id="Path_38" data-name="Path 38"><path class="cls-1" d="M9.89,23.72a1,1,0,0,1-.56-.17C9,23.3,0,17.25,0,9.88a9.89,9.89,0,0,1,19.77,0c0,7.37-8.95,13.42-9.33,13.67A1,1,0,0,1,9.89,23.72ZM9.89,2A7.9,7.9,0,0,0,2,9.88C2,15.22,8,20.1,9.89,21.49c1.88-1.4,7.88-6.27,7.88-11.61A7.9,7.9,0,0,0,9.89,2Z"/></g><g id="Path_39" data-name="Path 39"><path class="cls-1" d="M9.89,13.85a4,4,0,1,1,4-4A4,4,0,0,1,9.89,13.85Zm0-5.93a2,2,0,1,0,2,2A2,2,0,0,0,9.89,7.92Z"/></g></g></svg>