<svg id="Livello_1" data-name="Livello 1" xmlns="http://www.w3.org/2000/svg" viewBox="0 0 37 36.98"><defs><style>.cls-1{fill:#003182;}</style></defs><g id="Icon_awesome-whatsapp" data-name="Icon awesome-whatsapp"><path class="cls-1" d="M31.45,5.36A18.34,18.34,0,0,0,2.6,27.49L0,37l9.72-2.55a18.25,18.25,0,0,0,8.76,2.23h0A18.51,18.51,0,0,0,37,18.33,18.39,18.39,0,0,0,31.45,5.36Zm-13,28.21a15.14,15.14,0,0,1-7.76-2.12l-.56-.33L4.41,32.63,6,27l-.37-.58a15.27,15.27,0,1,1,28.32-8.1A15.39,15.39,0,0,1,18.49,33.57Zm8.36-11.41c-.46-.23-2.71-1.34-3.13-1.49s-.73-.23-1,.24-1.18,1.48-1.45,1.8-.54.34-1,.11c-2.69-1.34-4.46-2.4-6.23-5.45-.47-.81.47-.75,1.34-2.5a.84.84,0,0,0,0-.8c-.12-.23-1-2.48-1.41-3.4s-.75-.77-1-.78-.57,0-.88,0a1.68,1.68,0,0,0-1.22.57,5.11,5.11,0,0,0-1.6,3.82A8.91,8.91,0,0,0,11,19c.23.31,3.23,4.93,7.82,6.92,2.91,1.26,4.05,1.37,5.5,1.15.89-.13,2.71-1.11,3.09-2.18a3.87,3.87,0,0,0,.27-2.18c-.11-.21-.42-.33-.87-.55Z"/></g></svg>